<svg width="40" height="40" viewBox="0 0 40 40" fill="none" xmlns="http://www.w3.org/2000/svg">
<path d="M20 3.33337C10.8 3.33337 3.33331 10.8 3.33331 20C3.33331 29.2 10.8 36.6667 20 36.6667H28.3333V33.3334H20C12.7666 33.3334 6.66665 27.2334 6.66665 20C6.66665 12.7667 12.7666 6.66671 20 6.66671C27.2333 6.66671 33.3333 12.7667 33.3333 20V22.3834C33.3333 23.7 32.15 25 30.8333 25C29.5166 25 28.3333 23.7 28.3333 22.3834V20C28.3333 15.4 24.6 11.6667 20 11.6667C15.4 11.6667 11.6666 15.4 11.6666 20C11.6666 24.6 15.4 28.3334 20 28.3334C22.3 28.3334 24.4 27.4 25.9 25.8834C26.9833 27.3667 28.85 28.3334 30.8333 28.3334C34.1166 28.3334 36.6666 25.6667 36.6666 22.3834V20C36.6666 10.8 29.2 3.33337 20 3.33337ZM20 25C17.2333 25 15 22.7667 15 20C15 17.2334 17.2333 15 20 15C22.7666 15 25 17.2334 25 20C25 22.7667 22.7666 25 20 25Z" fill="#FFF6F6"/>
</svg>
