<svg width="64" height="64" viewBox="0 0 64 64" fill="none" xmlns="http://www.w3.org/2000/svg">
<g clip-path="url(#clip0_39_9)">
<circle cx="32" cy="32" r="32" fill="#FFF6F6"/>
<path d="M41.2587 10.0705C39.4952 10.283 37.8592 10.8566 36.4144 11.7809C34.7147 12.8751 32.6218 15.0317 31.9207 16.4446L31.5701 17.1458L31.1345 16.5933C30.2953 15.4991 28.1387 13.9906 26.4602 13.3213C24.123 12.3864 21.7221 12.3652 19.8949 13.2576C17.972 14.2031 16.6334 16.0303 16.166 18.3462C15.9429 19.4617 15.9429 22.2982 16.1766 23.8173C16.9097 28.566 18.8644 33.251 21.9027 37.5748C24.8773 41.8135 29.3392 46.7853 32.2606 49.1225L32.5156 49.3244L31.7507 51.1197C29.966 55.3373 27.6075 61.1696 27.6075 61.3714C27.6075 61.9026 28.4468 62.2213 28.7974 61.8176C28.893 61.722 29.541 60.2241 30.2422 58.5031C32.0163 54.1581 33.5567 50.493 33.6417 50.408C33.6948 50.3655 34.056 50.5673 34.4597 50.8648C35.3839 51.5234 36.51 52.2033 36.8606 52.2883C37.2324 52.3839 37.6999 52.0015 37.6999 51.6084C37.6999 51.2685 37.4343 50.9923 36.6906 50.5992C36.0532 50.2592 34.3003 48.9844 34.3003 48.8569C34.3003 48.7082 36.1382 44.6182 37.2431 42.3235C38.2629 40.1881 39.729 37.3411 41.8855 33.2722C43.5215 30.2021 45.8481 25.5702 46.7086 23.658C48.3021 20.1203 48.8439 18.24 48.9289 15.9453C49.0033 14.203 48.897 13.64 48.3552 12.5883C47.7285 11.3878 46.7405 10.6442 45.2957 10.2724C44.2971 10.0174 42.4592 9.92178 41.2587 10.0705ZM44.5414 11.5578C45.8906 11.8021 46.7192 12.3971 47.2185 13.4807C47.5054 14.1074 47.5266 14.2349 47.5266 15.4779C47.5054 18.2931 46.698 20.6197 43.4259 27.1637C42.5654 28.8847 41.3437 31.2538 40.7276 32.4224C37.2431 38.9558 35.8726 41.7073 34.0241 45.8611C33.5461 46.9447 33.0999 47.8265 33.0468 47.8265C32.8343 47.8265 30.5502 45.6911 29.1692 44.2145C22.9651 37.5323 19.6505 32.1249 18.142 26.2395C17.5577 23.9554 17.3771 22.3938 17.4408 20.3647C17.494 18.6968 17.6108 18.0913 18.0358 17.1245C18.5776 15.9134 19.7674 14.798 21.0316 14.3305C23.2519 13.5125 26.2583 14.3199 28.9355 16.434C30.1784 17.4326 30.8371 18.4949 30.9646 19.706C31.0602 20.6621 31.092 20.7578 31.4107 20.8852C31.8144 21.0552 32.2606 20.8534 32.3562 20.4815C32.3881 20.3328 32.505 20.1203 32.6112 20.0141C32.7812 19.8548 32.8131 19.6635 32.8131 18.9305C32.8131 17.8363 33.0149 17.2626 33.716 16.264C35.0652 14.373 37.4449 12.5458 39.3784 11.919C40.7488 11.4728 43.1816 11.3028 44.5414 11.5578Z" fill="#FF6969"/>
</g>
<defs>
<clipPath id="clip0_39_9">
<rect width="64" height="64" fill="white"/>
</clipPath>
</defs>
</svg>
