<svg width="40" height="41" viewBox="0 0 40 41" fill="none" xmlns="http://www.w3.org/2000/svg">
<g clip-path="url(#clip0_76_1106)">
<path fill-rule="evenodd" clip-rule="evenodd" d="M26.1783 19.3217C26.4908 19.6343 26.6663 20.0581 26.6663 20.5001C26.6663 20.942 26.4908 21.3658 26.1783 21.6784L16.75 31.1067C16.5963 31.2659 16.4123 31.3929 16.209 31.4802C16.0057 31.5676 15.787 31.6136 15.5657 31.6155C15.3444 31.6174 15.1249 31.5752 14.9201 31.4914C14.7153 31.4076 14.5292 31.2839 14.3727 31.1274C14.2162 30.9709 14.0924 30.7848 14.0086 30.58C13.9248 30.3752 13.8827 30.1557 13.8846 29.9344C13.8865 29.7131 13.9325 29.4944 14.0198 29.291C14.1072 29.0877 14.2342 28.9038 14.3933 28.7501L22.6433 20.5001L14.3933 12.2501C14.0897 11.9357 13.9217 11.5147 13.9255 11.0777C13.9293 10.6407 14.1046 10.2227 14.4136 9.91369C14.7227 9.60468 15.1407 9.4294 15.5777 9.4256C16.0147 9.4218 16.4357 9.58979 16.75 9.89339L26.1783 19.3217Z" fill="#FF6969"/>
</g>
<defs>
<clipPath id="clip0_76_1106">
<rect width="40" height="40" fill="white" transform="translate(0 0.5)"/>
</clipPath>
</defs>
</svg>
