<svg width="40" height="41" viewBox="0 0 40 41" fill="none" xmlns="http://www.w3.org/2000/svg">
<g clip-path="url(#clip0_76_1101)">
<path fill-rule="evenodd" clip-rule="evenodd" d="M13.8217 21.6783C13.5092 21.3658 13.3337 20.9419 13.3337 20.5C13.3337 20.0581 13.5092 19.6342 13.8217 19.3217L23.25 9.89334C23.4037 9.73415 23.5876 9.60718 23.791 9.51983C23.9943 9.43248 24.213 9.38651 24.4343 9.38458C24.6556 9.38266 24.8751 9.42483 25.0799 9.50863C25.2847 9.59243 25.4708 9.71619 25.6273 9.87268C25.7838 10.0292 25.9076 10.2153 25.9914 10.4201C26.0752 10.6249 26.1173 10.8444 26.1154 11.0657C26.1135 11.287 26.0675 11.5057 25.9802 11.709C25.8928 11.9123 25.7658 12.0963 25.6067 12.25L17.3567 20.5L25.6067 28.75C25.9103 29.0643 26.0782 29.4853 26.0744 29.9223C26.0706 30.3593 25.8954 30.7774 25.5864 31.0864C25.2773 31.3954 24.8593 31.5707 24.4223 31.5745C23.9853 31.5783 23.5643 31.4103 23.25 31.1067L13.8217 21.6783Z" fill="#FF6969"/>
</g>
<defs>
<clipPath id="clip0_76_1101">
<rect width="40" height="40" fill="white" transform="translate(0 0.5)"/>
</clipPath>
</defs>
</svg>
